inDegrees=yes
name=ik_S42_A06_T01
DataType=double
version=3
OpenSimVersion=4.3-2021-08-27-4bc7ad9
endheader
time	pelvis_tilt	pelvis_list	pelvis_rotation	pelvis_tx	pelvis_ty	pelvis_tz	hip_flexion_r	hip_adduction_r	hip_rotation_r	knee_angle_r	knee_angle_r_beta	ankle_angle_r	subtalar_angle_r	mtp_angle_r	hip_flexion_l	hip_adduction_l	hip_rotation_l	knee_angle_l	knee_angle_l_beta	ankle_angle_l	subtalar_angle_l	mtp_angle_l	lumbar_extension	lumbar_bending	lumbar_rotation	arm_flex_r	arm_add_r	arm_rot_r	elbow_flex_r	pro_sup_r	wrist_flex_r	wrist_dev_r	arm_flex_l	arm_add_l	arm_rot_l	elbow_flex_l	pro_sup_l	wrist_flex_l	wrist_dev_l
21.95999999999962	-5.658632446120644	-1.572263404200595	29.11321885201405	0	0.9399999999999999	0	38.70803000588157	-10.35436725183772	-9.984667214555675	48.80111548899799	0.8517401439290175	0	0	0	38.70803000588157	-10.35436725183772	-9.984667214555675	48.80111548899799	0.8517401439290175	0	0	0	-5.368052975497235	-0.3685562460935864	-3.556689532152213	33.12580096930351	-0.1371883769031773	7.203294865907724	47.22154058013275	130.6384085292757	0	0	61.51602363892639	-19.37869256266607	-11.19356498956728	32.48380139958257	90.23730673650128	0	0
21.97999999999962	-5.65619343822975	-1.5962759583686	29.06838873033358	0	0.9399999999999999	0	38.71005652698644	-10.35397126721447	-9.984678203215729	48.80245487458837	0.8517635206175235	0	0	0	38.71005652698644	-10.35397126721447	-9.984678203215729	48.80245487458837	0.8517635206175235	0	0	0	-5.377131248586413	-0.3923100952440238	-3.53922909270127	33.13253011182345	-0.1516580664578164	7.182166767223765	47.21450149788219	130.6551230541507	0	0	61.45565868409496	-19.11215179129096	-11.30107020139646	32.37116670934642	90.56458879269366	0	0
21.99999999999962	-5.661019399160745	-1.646367095087098	28.97350606946573	0	0.9399999999999999	0	38.71232968048616	-10.35352688400865	-9.984690534668617	48.80395558917141	0.8517897130281301	0	0	0	38.71232968048616	-10.35352688400865	-9.984690534668617	48.80395558917141	0.8517897130281301	0	0	0	-5.406548317850777	-0.4293868911003209	-3.576480137689112	33.17176758635593	-0.03640284469864179	7.261323918825783	47.20298035995181	130.6676620605996	0	0	61.45057800117919	-19.1432656572288	-11.15852346200987	32.4697971183056	90.32932418141577	0	0
22.01999999999962	-5.658276544475583	-1.643609204085728	28.98137086147633	0	0.9399999999999999	0	38.72364238096109	-10.35217139205177	-9.984738652804714	48.81195080584278	0.8519292558834558	0	0	0	38.72364238096109	-10.35217139205177	-9.984738652804714	48.81195080584278	0.8519292558834558	0	0	0	-5.403588716796238	-0.4249758549439706	-3.58069405172433	33.16800871448909	-0.06502783158576471	7.270031195298208	47.19558921489855	130.674115440003	0	0	61.43973547064581	-19.16049877594494	-11.1533802056926	32.47002294210174	90.43917336407355	0	0
22.03999999999962	-5.663857210797729	-1.678826213201035	28.92478485495258	0	0.9399999999999999	0	38.72565568531201	-10.35177915528156	-9.984749551521102	48.81328154868785	0.8519524817275996	0	0	0	38.72565568531201	-10.35177915528156	-9.984749551521102	48.81328154868785	0.8519524817275996	0	0	0	-5.425413877733716	-0.4532676998284342	-3.576038828691817	33.18695074905706	-0.04191549028001516	7.268962009444914	47.19176435314052	130.6710532715488	0	0	61.49687074229583	-19.00196584497765	-11.07885311814129	32.29754670350379	90.8228637620099	0	0
22.05999999999962	-5.670936230770622	-1.689040823411635	28.90478681974466	0	0.9399999999999999	0	38.70978215881471	-10.35559989622071	-9.984651511382951	48.80334089334805	0.8517789845621143	0	0	0	38.70978215881471	-10.35559989622071	-9.984651511382951	48.80334089334805	0.8517789845621143	0	0	0	-5.436996067065825	-0.4573504744201333	-3.622833373045585	33.19738680421027	-0.008997651717284961	7.30998563090295	47.17173863563897	130.7349722733839	0	0	61.65704680420514	-19.10568550725187	-11.16135464931733	31.99910733886509	91.00772078585393	0	0
22.07999999999962	-5.670366063400826	-1.697244954207789	28.8113325744879	0	0.9399999999999999	0	38.71133432874503	-10.35529772939024	-9.984659897543947	48.80437396646776	0.8517970150894671	0	0	0	38.71133432874503	-10.35529772939024	-9.984659897543947	48.80437396646776	0.8517970150894671	0	0	0	-5.44114604798049	-0.4621172860765375	-3.644528647830737	33.19816475889598	0.03743484504454392	7.421301916895751	47.21102768340182	130.6672329241075	0	0	61.75464223648557	-19.19400494502769	-11.06872781823038	31.68957773826574	91.25989674998712	0	0
22.09999999999962	-5.671697227529387	-1.687693531101618	28.76725145369629	0	0.9399999999999999	0	38.71329045404686	-10.35491491979296	-9.984670503793856	48.80566881810297	0.8518196145138263	0	0	0	38.71329045404686	-10.35491491979296	-9.984670503793856	48.80566881810297	0.8518196145138263	0	0	0	-5.43670590979699	-0.4573053306784563	-3.599739730761782	33.22069327829463	-0.01107803999311761	7.430380052647617	47.24047685433256	130.6037283308467	0	0	61.75843411606353	-19.12712707917537	-10.62506972854448	31.43780322501176	91.30567968773433	0	0
22.11999999999962	-5.680927178276513	-1.663971424937161	28.68551199361618	0	0.9399999999999999	0	38.70570589824163	-10.35716504189338	-9.984617137527085	48.80119098981346	0.8517414616668353	0	0	0	38.70570589824163	-10.35716504189338	-9.984617137527085	48.80119098981346	0.8517414616668353	0	0	0	-5.43373469936954	-0.4307898240336961	-3.623252944099773	33.20819319338322	-0.008027052946533459	7.584297906560407	47.23480611027498	130.5863800597886	0	0	61.74139899938604	-19.1974185602485	-10.74669467493854	31.17832272949847	91.5743326909292	0	0
22.13999999999962	-5.682460150412631	-1.654608562248957	28.62863536389448	0	0.9399999999999999	0	38.70773400944932	-10.35676671908481	-9.984628149334849	48.8025339175588	0.8517649001776079	0	0	0	38.70773400944932	-10.35676671908481	-9.984628149334849	48.8025339175588	0.8517649001776079	0	0	0	-5.429935581233742	-0.4246254820538554	-3.590930297203887	33.21531546429766	-0.005976841289526515	7.655960291666076	47.2443976266737	130.5254039107419	0	0	61.65416169162117	-19.16595658179687	-10.30692524436648	31.17494816722395	91.23589656212457	0	0
22.15999999999962	-5.687105321098756	-1.638105739174062	28.58813637759589	0	0.9399999999999999	0	38.70985414229172	-10.35635037295914	-9.984639661598399	48.80393689537977	0.8517893867599163	0	0	0	38.70985414229172	-10.35635037295914	-9.984639661598399	48.80393689537977	0.8517893867599163	0	0	0	-5.425979014431614	-0.4084957231524108	-3.579491561057516	33.19383466024627	-0.02177435729971582	7.676989545042679	47.24861631242525	130.5515009986003	0	0	61.60430923346695	-19.21076971480175	-10.06687999592737	31.22653654240339	90.9201970703264	0	0
22.17999999999962	-5.684104267818706	-1.618785090056662	28.54810883137732	0	0.9399999999999999	0	38.71159240278477	-10.35600989173347	-9.984649085637784	48.80508922673448	0.85180949873613	0	0	0	38.71159240278477	-10.35600989173347	-9.984649085637784	48.80508922673448	0.85180949873613	0	0	0	-5.413798446951223	-0.3943992992873104	-3.561515272977643	33.18545963494657	-0.03353820625689166	7.641196318216075	47.22948508984366	130.563649011857	0	0	61.52275666794328	-19.24480305913816	-9.857609997116949	31.10629928951985	90.54626813898879	0	0
22.19999999999962	-5.685054660812696	-1.610834023776877	28.51925924782224	0	0.9399999999999999	0	38.71344600754468	-10.35564592979293	-9.984659152010584	48.80631467761179	0.8518308868887606	0	0	0	38.71344600754468	-10.35564592979293	-9.984659152010584	48.80631467761179	0.8518308868887606	0	0	0	-5.410772990440194	-0.3873146826165975	-3.553608199601231	33.19260292493832	-0.03337709936112276	7.551527177260595	47.23899083030282	130.5927915797147	0	0	61.45734941380436	-19.30797861614051	-9.733642868937984	31.14442633346076	90.3961533522092	0	0
22.21999999999962	-5.693704337217823	-1.602091122414724	28.49831634898145	0	0.9399999999999999	0	38.72010821701513	-10.35427380776253	-9.984696165491135	48.81069624942121	0.8519073597432475	0	0	0	38.72010821701513	-10.35427380776253	-9.984696165491135	48.81069624942121	0.8519073597432475	0	0	0	-5.414392204441361	-0.3746411765230367	-3.546340645805028	33.22790919419187	-0.04925827812290064	7.464656146526019	47.24962142962286	130.5920810303624	0	0	61.38516865312722	-19.37155644570784	-9.78635994458522	31.18762130827421	90.40309080353221	0	0
22.23999999999961	-5.688094467081469	-1.584057536265808	28.49675525080969	0	0.9399999999999999	0	38.72201932240819	-10.3539078608185	-9.984706379880937	48.81198659995215	0.8519298806085173	0	0	0	38.72201932240819	-10.3539078608185	-9.984706379880937	48.81198659995215	0.8519298806085173	0	0	0	-5.401074577705106	-0.3606281367996344	-3.548352213659909	33.195900590896	-0.05713504857258683	7.398406403306124	47.21079781391062	130.6956004536587	0	0	61.1652642507667	-19.4275967178491	-9.887219252099088	31.48454993996627	90.55467374682583	0	0
22.25999999999961	-5.691038173523475	-1.570965143751069	28.52037856457267	0	0.9399999999999999	0	38.72410401764231	-10.3535076607584	-9.984717542879624	48.81338943496499	0.8519543646983535	0	0	0	38.72410401764231	-10.3535076607584	-9.984717542879624	48.81338943496499	0.8519543646983535	0	0	0	-5.398175067743927	-0.3442690100095382	-3.574879893110198	33.19472641190188	-0.08021640973843297	7.415459360958236	47.22295897023974	130.6605242647704	0	0	60.92236529155794	-19.45921990224269	-9.984065851241862	31.90113679148785	90.3929200933383	0	0
22.27999999999961	-5.685337927648742	-1.543253726262077	28.55150200982596	0	0.9399999999999999	0	38.72609946385784	-10.35313463110547	-9.98472804401661	48.81476506455751	0.8519783739640308	0	0	0	38.72609946385784	-10.35313463110547	-9.98472804401661	48.81476506455751	0.8519783739640308	0	0	0	-5.380943972661841	-0.3176032661931613	-3.615764635328786	33.16839837967791	-0.1013625549200848	7.412038219586905	47.20739523226471	130.6803667652098	0	0	60.60823785169818	-19.4787202257383	-10.14901797073705	32.50979167901434	89.89822879312987	0	0
22.29999999999961	-5.677129924443705	-1.545369943565424	28.53973444108404	0	0.9399999999999999	0	38.74669322941315	-10.34939787925968	-9.984835166440407	48.82855231654779	0.8522190069060634	0	0	0	38.74669322941315	-10.34939787925968	-9.984835166440407	48.82855231654779	0.8522190069060634	0	0	0	-5.375399304049197	-0.3204071572028136	-3.600222860286186	33.15896282231205	-0.1052710130130712	7.416494081071098	47.26674547486508	130.610508450991	0	0	60.60017227638779	-19.47145168409897	-10.12265074344104	32.7129458568122	89.74177364383598	0	0
22.31999999999961	-5.667003148166078	-1.524311712946279	28.56277918827174	0	0.9399999999999999	0	38.74879290220272	-10.349010875671	-9.984846127579065	48.83000931031842	0.8522444362445418	0	0	0	38.74879290220272	-10.349010875671	-9.984846127579065	48.83000931031842	0.8522444362445418	0	0	0	-5.357363309350216	-0.301480818758924	-3.644810205710014	33.1333922140925	-0.08659952334809901	7.435744114735502	47.20882580843217	130.6733504463338	0	0	60.18856589583164	-19.47999234157581	-10.30456050319861	33.66379324168838	89.36434701054804	0	0
22.33999999999961	-5.65690434059288	-1.525513474943051	28.49873096499028	0	0.9399999999999999	0	38.75119312432624	-10.3485535429336	-9.984858936231465	48.83162317863832	0.8522726035604179	0	0	0	38.75119312432624	-10.3485535429336	-9.984858936231465	48.83162317863832	0.8522726035604179	0	0	0	-5.347832053521294	-0.3138471955452497	-3.584273641985622	33.11894016808832	-0.07345257194024976	7.434359142107244	47.24768667516531	130.6326472398773	0	0	60.17323625907807	-19.48092637615448	-10.17952716886057	34.8797037849003	88.83239306274237	0	0
22.35999999999961	-5.652783458780102	-1.515603383394881	28.57666502082211	0	0.9399999999999999	0	38.7547984586271	-10.34785857662167	-9.984878326574973	48.83401894007655	0.8523144174856072	0	0	0	38.7547984586271	-10.34785857662167	-9.984878326574973	48.83401894007655	0.8523144174856072	0	0	0	-5.342177318965462	-0.2960745626914398	-3.677186716970082	33.11304987271574	-0.03058534870985265	7.471594995881254	47.22529897972465	130.6646261536822	0	0	59.04816856300859	-19.68440173802352	-10.45494859215671	36.49555152949607	88.36706247736566	0	0
22.37999999999961	-5.626280245015108	-1.46068959967127	28.59971058759123	0	0.9399999999999999	0	38.75862422972818	-10.34713478843231	-9.984898654040563	48.8366043473702	0.8523595413553865	0	0	0	38.75862422972818	-10.34713478843231	-9.984898654040563	48.8366043473702	0.8523595413553865	0	0	0	-5.295525488593651	-0.248707143250111	-3.782323825819113	33.04210799459893	-0.0267722937692595	7.565079843309008	47.21002796766651	130.6080029516658	0	0	58.01350336821064	-19.85718498169856	-10.77607317873455	38.58039041634616	87.68564566019445	0	0
